<svg version="1.0" xmlns="http://www.w3.org/2000/svg" width="256.000000" height="256.000000" viewBox="0 0 256.000000 256.000000" preserveAspectRatio="xMidYMid meet"><rect x="31" y="15" width="17" height="17" fill="rgb(254,197,124)" /><rect x="47" y="15" width="17" height="17" fill="rgb(250,167,156)" /><rect x="63" y="15" width="17" height="17" fill="rgb(244,98,176)" /><rect x="79" y="15" width="17" height="17" fill="rgb(239,32,115)" /><rect x="95" y="15" width="17" height="17" fill="rgb(239,32,114)" /><rect x="31" y="31" width="17" height="17" fill="rgb(253,191,130)" /><rect x="47" y="31" width="17" height="17" fill="rgb(244,106,225)" /><rect x="63" y="31" width="17" height="17" fill="rgb(243,91,242)" /><rect x="79" y="31" width="17" height="17" fill="rgb(241,75,207)" /><rect x="95" y="31" width="17" height="17" fill="rgb(239,39,130)" /><rect x="111" y="31" width="17" height="17" fill="rgb(239,32,114)" /><rect x="159" y="31" width="17" height="17" fill="rgb(3,155,255)" /><rect x="175" y="31" width="17" height="17" fill="rgb(0,203,255)" /><rect x="191" y="31" width="17" height="17" fill="rgb(0,204,255)" /><rect x="31" y="47" width="17" height="17" fill="rgb(247,137,189)" /><rect x="47" y="47" width="17" height="17" fill="rgb(95,28,47)" /><rect x="63" y="47" width="17" height="17" fill="rgb(85,24,34)" /><rect x="79" y="47" width="17" height="17" fill="rgb(85,24,34)" /><rect x="95" y="47" width="17" height="17" fill="rgb(85,22,31)" /><rect x="111" y="47" width="17" height="17" fill="rgb(85,20,27)" /><rect x="127" y="47" width="17" height="17" fill="rgb(85,20,27)" /><rect x="143" y="47" width="17" height="17" fill="rgb(59,21,30)" /><rect x="159" y="47" width="17" height="17" fill="rgb(16,17,32)" /><rect x="175" y="47" width="17" height="17" fill="rgb(16,21,32)" /><rect x="191" y="47" width="17" height="17" fill="rgb(16,21,32)" /><rect x="207" y="47" width="17" height="17" fill="rgb(0,193,241)" /><rect x="15" y="63" width="17" height="17" fill="rgb(251,173,150)" /><rect x="31" y="63" width="17" height="17" fill="rgb(243,93,239)" /><rect x="47" y="63" width="17" height="17" fill="rgb(85,24,34)" /><rect x="63" y="63" width="17" height="17" fill="rgb(159,129,130)" /><rect x="79" y="63" width="17" height="17" fill="rgb(197,180,180)" /><rect x="95" y="63" width="17" height="17" fill="rgb(96,44,43)" /><rect x="111" y="63" width="17" height="17" fill="rgb(76,20,22)" /><rect x="127" y="63" width="17" height="17" fill="rgb(149,117,118)" /><rect x="143" y="63" width="17" height="17" fill="rgb(91,62,63)" /><rect x="159" y="63" width="17" height="17" fill="rgb(17,10,19)" /><rect x="175" y="63" width="17" height="17" fill="rgb(17,10,19)" /><rect x="191" y="63" width="17" height="17" fill="rgb(17,10,19)" /><rect x="207" y="63" width="17" height="17" fill="rgb(1,192,241)" /><rect x="223" y="63" width="17" height="17" fill="rgb(0,204,255)" /><rect x="15" y="79" width="17" height="17" fill="rgb(245,111,219)" /><rect x="31" y="79" width="17" height="17" fill="rgb(243,91,242)" /><rect x="47" y="79" width="17" height="17" fill="rgb(85,24,34)" /><rect x="63" y="79" width="17" height="17" fill="rgb(117,71,68)" /><rect x="79" y="79" width="17" height="17" fill="rgb(191,168,164)" /><rect x="95" y="79" width="17" height="17" fill="rgb(76,20,22)" /><rect x="111" y="79" width="17" height="17" fill="rgb(76,20,22)" /><rect x="127" y="79" width="17" height="17" fill="rgb(180,157,158)" /><rect x="143" y="79" width="17" height="17" fill="rgb(96,80,80)" /><rect x="159" y="79" width="17" height="17" fill="rgb(17,10,19)" /><rect x="175" y="79" width="17" height="17" fill="rgb(17,10,19)" /><rect x="191" y="79" width="17" height="17" fill="rgb(17,10,19)" /><rect x="207" y="79" width="17" height="17" fill="rgb(1,187,241)" /><rect x="223" y="79" width="17" height="17" fill="rgb(2,165,255)" /><rect x="31" y="95" width="17" height="17" fill="rgb(242,88,236)" /><rect x="47" y="95" width="17" height="17" fill="rgb(85,24,34)" /><rect x="63" y="95" width="17" height="17" fill="rgb(117,71,68)" /><rect x="79" y="95" width="17" height="17" fill="rgb(191,168,164)" /><rect x="95" y="95" width="17" height="17" fill="rgb(76,20,22)" /><rect x="111" y="95" width="17" height="17" fill="rgb(77,21,23)" /><rect x="127" y="95" width="17" height="17" fill="rgb(181,158,158)" /><rect x="143" y="95" width="17" height="17" fill="rgb(87,77,79)" /><rect x="159" y="95" width="17" height="17" fill="rgb(17,10,19)" /><rect x="175" y="95" width="17" height="17" fill="rgb(17,10,19)" /><rect x="191" y="95" width="17" height="17" fill="rgb(17,10,19)" /><rect x="207" y="95" width="17" height="17" fill="rgb(4,141,241)" /><rect x="223" y="95" width="17" height="17" fill="rgb(4,145,255)" /><rect x="31" y="111" width="17" height="17" fill="rgb(240,99,62)" /><rect x="47" y="111" width="17" height="17" fill="rgb(85,24,26)" /><rect x="63" y="111" width="17" height="17" fill="rgb(172,142,139)" /><rect x="79" y="111" width="17" height="17" fill="rgb(231,220,214)" /><rect x="95" y="111" width="17" height="17" fill="rgb(114,64,64)" /><rect x="111" y="111" width="17" height="17" fill="rgb(212,195,194)" /><rect x="127" y="111" width="17" height="17" fill="rgb(219,206,205)" /><rect x="143" y="111" width="17" height="17" fill="rgb(44,35,42)" /><rect x="159" y="111" width="17" height="17" fill="rgb(17,10,19)" /><rect x="175" y="111" width="17" height="17" fill="rgb(17,10,19)" /><rect x="191" y="111" width="17" height="17" fill="rgb(17,10,19)" /><rect x="207" y="111" width="17" height="17" fill="rgb(4,137,241)" /><rect x="223" y="111" width="17" height="17" fill="rgb(4,145,255)" /><rect x="15" y="127" width="17" height="17" fill="rgb(241,133,23)" /><rect x="31" y="127" width="17" height="17" fill="rgb(240,121,33)" /><rect x="47" y="127" width="17" height="17" fill="rgb(85,24,23)" /><rect x="63" y="127" width="17" height="17" fill="rgb(83,27,26)" /><rect x="79" y="127" width="17" height="17" fill="rgb(86,30,28)" /><rect x="95" y="127" width="17" height="17" fill="rgb(77,21,23)" /><rect x="111" y="127" width="17" height="17" fill="rgb(63,27,30)" /><rect x="127" y="127" width="17" height="17" fill="rgb(39,20,26)" /><rect x="143" y="127" width="17" height="17" fill="rgb(17,10,19)" /><rect x="159" y="127" width="17" height="17" fill="rgb(17,10,19)" /><rect x="175" y="127" width="17" height="17" fill="rgb(17,10,19)" /><rect x="191" y="127" width="17" height="17" fill="rgb(17,10,19)" /><rect x="207" y="127" width="17" height="17" fill="rgb(4,137,241)" /><rect x="223" y="127" width="17" height="17" fill="rgb(4,145,255)" /><rect x="15" y="143" width="17" height="17" fill="rgb(240,123,31)" /><rect x="31" y="143" width="17" height="17" fill="rgb(239,67,81)" /><rect x="47" y="143" width="17" height="17" fill="rgb(85,26,22)" /><rect x="63" y="143" width="17" height="17" fill="rgb(76,20,22)" /><rect x="79" y="143" width="17" height="17" fill="rgb(76,20,22)" /><rect x="95" y="143" width="17" height="17" fill="rgb(50,15,20)" /><rect x="111" y="143" width="17" height="17" fill="rgb(19,10,19)" /><rect x="127" y="143" width="17" height="17" fill="rgb(17,10,19)" /><rect x="143" y="143" width="17" height="17" fill="rgb(17,10,19)" /><rect x="159" y="143" width="17" height="17" fill="rgb(17,10,19)" /><rect x="175" y="143" width="17" height="17" fill="rgb(17,10,19)" /><rect x="191" y="143" width="17" height="17" fill="rgb(17,10,19)" /><rect x="207" y="143" width="17" height="17" fill="rgb(4,137,241)" /><rect x="223" y="143" width="17" height="17" fill="rgb(3,148,255)" /><rect x="47" y="159" width="17" height="17" fill="rgb(85,26,22)" /><rect x="63" y="159" width="17" height="17" fill="rgb(76,20,22)" /><rect x="79" y="159" width="17" height="17" fill="rgb(74,19,21)" /><rect x="95" y="159" width="17" height="17" fill="rgb(27,11,19)" /><rect x="111" y="159" width="17" height="17" fill="rgb(17,10,19)" /><rect x="127" y="159" width="17" height="17" fill="rgb(17,10,19)" /><rect x="143" y="159" width="17" height="17" fill="rgb(17,10,19)" /><rect x="159" y="159" width="17" height="17" fill="rgb(17,10,19)" /><rect x="175" y="159" width="17" height="17" fill="rgb(17,10,19)" /><rect x="191" y="159" width="17" height="17" fill="rgb(17,10,19)" /><rect x="207" y="159" width="17" height="17" fill="rgb(4,137,241)" /><rect x="223" y="159" width="17" height="17" fill="rgb(4,145,255)" /><rect x="47" y="175" width="17" height="17" fill="rgb(85,26,22)" /><rect x="63" y="175" width="17" height="17" fill="rgb(149,117,118)" /><rect x="79" y="175" width="17" height="17" fill="rgb(171,156,158)" /><rect x="95" y="175" width="17" height="17" fill="rgb(161,154,157)" /><rect x="111" y="175" width="17" height="17" fill="rgb(159,154,157)" /><rect x="127" y="175" width="17" height="17" fill="rgb(25,18,27)" /><rect x="143" y="175" width="17" height="17" fill="rgb(17,10,19)" /><rect x="159" y="175" width="17" height="17" fill="rgb(17,10,19)" /><rect x="175" y="175" width="17" height="17" fill="rgb(17,10,19)" /><rect x="191" y="175" width="17" height="17" fill="rgb(17,10,19)" /><rect x="207" y="175" width="17" height="17" fill="rgb(4,137,241)" /><rect x="223" y="175" width="17" height="17" fill="rgb(4,145,255)" /><rect x="47" y="191" width="17" height="17" fill="rgb(85,22,25)" /><rect x="63" y="191" width="17" height="17" fill="rgb(74,19,21)" /><rect x="79" y="191" width="17" height="17" fill="rgb(44,14,20)" /><rect x="95" y="191" width="17" height="17" fill="rgb(18,10,19)" /><rect x="111" y="191" width="17" height="17" fill="rgb(17,10,19)" /><rect x="127" y="191" width="17" height="17" fill="rgb(17,10,19)" /><rect x="143" y="191" width="17" height="17" fill="rgb(17,10,19)" /><rect x="159" y="191" width="17" height="17" fill="rgb(17,10,19)" /><rect x="175" y="191" width="17" height="17" fill="rgb(17,10,19)" /><rect x="191" y="191" width="17" height="17" fill="rgb(17,10,19)" /><rect x="207" y="191" width="17" height="17" fill="rgb(4,139,241)" /><rect x="223" y="191" width="17" height="17" fill="rgb(3,154,255)" /><rect x="31" y="207" width="17" height="17" fill="rgb(239,32,114)" /><rect x="47" y="207" width="17" height="17" fill="rgb(230,32,111)" /><rect x="63" y="207" width="17" height="17" fill="rgb(231,65,182)" /><rect x="79" y="207" width="17" height="17" fill="rgb(230,86,228)" /><rect x="111" y="207" width="17" height="17" fill="rgb(4,137,241)" /><rect x="127" y="207" width="17" height="17" fill="rgb(4,137,241)" /><rect x="143" y="207" width="17" height="17" fill="rgb(4,145,241)" /><rect x="159" y="207" width="17" height="17" fill="rgb(1,188,241)" /><rect x="175" y="207" width="17" height="17" fill="rgb(3,154,241)" /><rect x="191" y="207" width="17" height="17" fill="rgb(4,139,241)" /><rect x="207" y="207" width="17" height="17" fill="rgb(2,169,254)" /><rect x="31" y="223" width="17" height="17" fill="rgb(239,34,118)" /><rect x="127" y="223" width="17" height="17" fill="rgb(4,145,255)" /><rect x="143" y="223" width="17" height="17" fill="rgb(3,156,255)" /><rect x="159" y="223" width="17" height="17" fill="rgb(1,181,255)" /><rect x="175" y="223" width="17" height="17" fill="rgb(4,145,255)" /><g transform="translate(0.000000,256.000000) scale(0.100000,-0.100000)" fill="#130C13" stroke="none"><path d="M1516 2068 c4 -7 18 -28 32 -47 14 -19 21 -32 15 -28 -7 4 -13 -26 -17 -85 -4 -51 -11 -97 -17 -104 -5 -6 -14 -60 -20 -120 -6 -60 -15 -118 -19 -129 -5 -11 -11 -49 -13 -85 -3 -36 -14 -85 -26 -110 -11 -25 -21 -59 -21 -77 0 -17 -5 -35 -11 -38 -6 -4 -8 -13 -5 -21 3 -9 -16 -3 -53 15 l-58 30 -12 -25 c-10 -23 -15 -25 -56 -18 -41 6 -45 5 -45 -15 0 -12 -4 -29 -9 -39 -5 -9 -14 -30 -20 -46 -11 -26 -15 -28 -50 -22 -48 7 -67 -12 -80 -77 -4 -26 -13 -52 -18 -59 -5 -7 -16 -33 -23 -58 -8 -25 -22 -56 -32 -69 -37 -49 -32 -51 152 -51 l170 0 0 -55 0 -55 -139 0 -138 0 -82 -100 -82 -100 621 0 620 0 0 800 0 800 -286 0 c-225 0 -284 -3 -278 -12z"/><path d="M857 662 c-10 -10 -17 -32 -17 -49 0 -24 -12 -43 -47 -79 -27 -27 -41 -44 -33 -38 19 14 212 164 224 176 6 4 -17 8 -50 8 -46 0 -65 -4 -77 -18z"/></g><g transform="translate(0.000000,256.000000) scale(0.100000,-0.100000)" fill="#4C1919" stroke="none"><path d="M480 1280 l0 -800 180 0 179 1 67 82 c100 121 102 124 84 111 -8 -6 -60 -46 -115 -89 -134 -105 -137 -107 -82 -51 35 36 47 55 47 79 0 17 7 39 17 49 15 17 12 18 -80 18 l-97 0 0 50 0 50 303 2 c192 2 239 4 130 5 -186 4 -192 6 -155 54 10 13 24 44 32 69 7 25 18 51 23 58 5 7 14 33 18 59 13 65 32 84 80 77 35 -6 39 -4 50 22 6 16 15 37 20 46 5 10 9 27 9 39 0 20 4 21 45 15 41 -7 46 -5 56 18 l12 25 58 -30 c37 -18 56 -24 53 -15 -3 8 -1 17 5 21 6 3 11 19 11 35 0 16 5 41 11 57 l10 28 -33 -31 c-18 -18 -42 -36 -54 -42 -36 -19 -117 -25 -164 -12 -43 12 -130 64 -130 78 0 4 17 27 38 51 l38 44 39 -26 c53 -36 106 -37 134 -1 20 25 21 39 21 240 l0 214 70 0 70 0 2 -167 c2 -93 6 -161 9 -153 4 8 12 64 18 124 6 60 15 114 20 120 6 7 13 53 17 104 4 50 11 89 16 86 5 -3 -6 15 -24 40 l-32 46 -513 0 -513 0 0 -800z m500 545 l0 -55 -40 0 -40 0 0 -190 0 -190 40 0 40 0 0 -55 0 -55 -150 0 -150 0 0 55 0 55 40 0 40 0 0 190 0 190 -40 0 -40 0 0 55 0 55 150 0 150 0 0 -55z"/><path d="M1471 1444 c0 -11 3 -14 6 -6 3 7 2 16 -1 19 -3 4 -6 -2 -5 -13z"/></g><g transform="translate(0.000000,256.000000) scale(0.100000,-0.100000)" fill="#F28519" stroke="none"><path d="M370 2553 c8 -4 58 -35 110 -71 l94 -64 15 33 c9 19 16 35 17 37 3 6 144 -30 144 -36 0 -4 21 -6 47 -4 27 2 131 6 233 10 l185 7 -410 48 c-396 46 -468 53 -435 40z"/><path d="M128 1252 l-107 -197 29 -25 c35 -30 190 -138 173 -120 -10 11 15 42 122 155 l135 142 0 74 0 74 -108 42 c-59 23 -114 45 -122 47 -11 4 -43 -46 -122 -192z"/><path d="M436 993 c-21 -87 -47 -187 -57 -223 -22 -76 -58 -260 -51 -260 3 0 38 19 78 43 l74 42 0 278 c0 152 -1 277 -3 277 -1 0 -20 -71 -41 -157z"/></g><g transform="translate(0.000000,256.000000) scale(0.100000,-0.100000)" fill="#F22672" stroke="none"><path d="M856 2451 l-99 -6 -19 -55 c-10 -30 -17 -61 -16 -67 2 -7 77 -64 168 -128 l164 -115 228 0 228 0 -35 52 c-20 29 -86 114 -148 190 l-111 138 -131 -2 c-71 -1 -175 -4 -229 -7z"/><path d="M5 1540 c2 -4 55 -26 117 -49 62 -24 165 -63 228 -87 63 -24 119 -44 123 -44 5 0 7 14 5 32 l-3 31 -237 62 c-130 34 -235 58 -233 55z"/><path d="M1070 1356 c0 -2 8 -10 18 -17 15 -13 16 -12 3 4 -13 16 -21 21 -21 13z"/><path d="M343 1063 c-108 -115 -129 -141 -119 -154 14 -19 156 -123 160 -118 8 9 98 389 94 400 -2 6 -63 -52 -135 -128z"/><path d="M331 584 c0 -11 3 -14 6 -6 3 7 2 16 -1 19 -3 4 -6 -2 -5 -13z"/><path d="M400 550 c-36 -22 -68 -40 -71 -40 -3 0 -5 12 -3 28 2 15 -25 -85 -60 -223 -36 -137 -63 -251 -61 -253 2 -2 46 10 97 27 l93 32 193 179 192 180 -150 0 -150 0 0 55 c0 30 -3 55 -7 55 -5 -1 -37 -19 -73 -40z"/></g><g transform="translate(0.000000,256.000000) scale(0.100000,-0.100000)" fill="#FFC57F" stroke="none"><path d="M351 2528 c-253 -694 -352 -970 -349 -974 8 -7 103 28 119 45 9 9 121 180 249 381 128 201 238 371 245 378 10 11 19 10 51 -5 21 -10 42 -22 45 -26 6 -8 39 96 39 120 0 10 -140 49 -144 41 -1 -2 -8 -18 -17 -37 l-15 -33 -97 66 c-53 36 -101 66 -107 66 -6 0 -14 -10 -19 -22z"/><path d="M973 1825 c0 -33 2 -45 4 -27 2 18 2 45 0 60 -2 15 -4 0 -4 -33z"/><path d="M1474 1670 c0 -118 2 -167 3 -107 2 59 2 155 0 215 -1 59 -3 10 -3 -108z"/><path d="M764 1580 c0 -107 2 -151 3 -97 2 53 2 141 0 195 -1 53 -3 9 -3 -98z"/><path d="M894 1580 c0 -107 2 -151 3 -97 2 53 2 141 0 195 -1 53 -3 9 -3 -98z"/><path d="M1309 1413 c-13 -16 -12 -17 4 -4 9 7 17 15 17 17 0 8 -8 3 -21 -13z"/><path d="M1248 1393 c6 -2 18 -2 25 0 6 3 1 5 -13 5 -14 0 -19 -2 -12 -5z"/><path d="M970 1340 l0 -49 -147 -4 -148 -3 153 -2 152 -2 0 55 c0 30 -2 55 -5 55 -3 0 -5 -22 -5 -50z"/><path d="M1248 1273 c12 -2 30 -2 40 0 9 3 -1 5 -23 4 -22 0 -30 -2 -17 -4z"/></g><g transform="translate(0.000000,256.000000) scale(0.100000,-0.100000)" fill="#F85FF2" stroke="none"><path d="M567 2288 c-29 -46 -138 -216 -242 -378 -103 -162 -194 -302 -202 -311 -8 -9 -34 -22 -59 -29 -24 -7 -46 -16 -49 -20 -2 -4 100 -34 228 -67 l232 -59 3 328 2 328 287 0 286 0 -39 28 c-121 87 -378 262 -385 262 -5 0 -33 -37 -62 -82z"/><path d="M627 339 c-83 -78 -170 -159 -192 -180 l-39 -38 279 95 c263 89 283 98 334 142 30 26 65 65 78 85 l23 37 -165 0 -165 0 -153 -141z"/></g><g transform="translate(0.000000,256.000000) scale(0.100000,-0.100000)" fill="#0692FF" stroke="none"><path d="M1537 2245 c-32 -41 -60 -81 -63 -89 -3 -8 5 -28 17 -45 l23 -31 123 0 c68 0 123 3 123 8 0 4 -7 17 -15 29 -9 12 -15 26 -14 30 1 4 1 27 0 51 l-1 42 -85 0 c-47 0 -85 3 -85 6 0 4 9 22 21 40 32 53 19 40 -44 -41z"/><path d="M2313 1711 l-232 -156 -1 -537 0 -538 -109 0 -109 0 -35 -47 c-90 -123 -296 -427 -292 -431 4 -4 667 258 779 308 l49 22 -154 59 c-85 33 -163 63 -173 67 -12 5 35 16 140 31 87 12 166 24 174 27 8 2 49 -25 91 -60 69 -59 75 -62 72 -37 -2 14 -19 135 -37 268 l-34 242 -46 60 -47 61 49 0 50 0 11 48 c10 43 101 724 101 757 0 8 -3 15 -7 14 -5 -1 -113 -71 -240 -158z"/><path d="M1086 442 c-13 -21 -48 -59 -78 -85 l-53 -46 36 11 c36 11 37 10 251 -135 117 -80 222 -147 232 -149 16 -2 28 24 82 172 35 96 63 178 64 182 0 4 -28 8 -62 10 l-63 3 60 37 60 37 -252 1 -253 0 -24 -38z"/></g><g transform="translate(0.000000,256.000000) scale(0.100000,-0.100000)" fill="#00CCFF" stroke="none"><path d="M1695 2453 c-57 -76 -135 -194 -135 -205 0 -5 38 -8 85 -8 l85 0 1 -42 c2 -55 2 -58 19 -90 l13 -28 158 0 159 0 2 -262 3 -261 238 159 c130 87 236 162 235 166 -4 10 -797 638 -805 638 -5 -1 -30 -31 -58 -67z"/><path d="M2450 1065 c0 -11 -12 -15 -50 -15 l-51 0 42 -55 c23 -31 45 -52 49 -48 9 10 23 133 15 133 -3 0 -5 -7 -5 -15z"/><path d="M2205 494 c-82 -13 -159 -24 -170 -26 -11 -2 57 -32 152 -68 94 -36 169 -68 167 -72 -2 -3 32 8 76 25 44 18 80 35 80 39 0 7 -136 122 -148 124 -4 1 -74 -9 -157 -22z"/><path d="M1555 442 l-60 -37 63 -3 c34 -2 62 -6 62 -10 -1 -4 -29 -86 -64 -182 -54 -149 -66 -175 -82 -172 -11 2 -5 -6 15 -18 18 -12 37 -18 41 -13 4 4 69 98 145 208 76 110 149 215 163 233 l24 32 -123 0 -124 -1 -60 -37z"/></g><g transform="translate(0.000000,256.000000) scale(0.100000,-0.100000)" fill="#FFFFFF" stroke="none"><path d="M695 2330 c3 -5 8 -10 11 -10 2 0 4 5 4 10 0 6 -5 10 -11 10 -5 0 -7 -4 -4 -10z"/><path d="M680 1825 l0 -55 45 0 45 0 0 -190 0 -190 -45 0 -45 0 0 -50 0 -50 145 0 145 0 0 50 0 50 -40 0 -40 0 0 190 0 190 40 0 40 0 0 55 0 55 -145 0 -145 0 0 -55z"/><path d="M1340 1662 c0 -177 -3 -222 -15 -239 -29 -42 -102 -38 -151 8 l-22 20 -40 -43 -41 -43 21 -22 c72 -77 243 -85 322 -15 10 9 27 35 37 57 16 35 19 68 19 268 l0 227 -65 0 -65 0 0 -218z"/><path d="M680 730 l0 -50 300 0 300 0 0 50 0 50 -300 0 -300 0 0 -50z"/></g></svg>