<svg version="1.0" xmlns="http://www.w3.org/2000/svg" width="20.000000" height="20.000000" viewBox="0 0 125.000000 125.000000" preserveAspectRatio="xMidYMid meet"><rect x="43" y="10" width="12" height="12" fill="rgb(255,80,80)" /><rect x="54" y="10" width="12" height="12" fill="rgb(255,80,80)" /><rect x="65" y="10" width="12" height="12" fill="rgb(255,80,80)" /><rect x="76" y="10" width="12" height="12" fill="rgb(255,80,80)" /><rect x="87" y="10" width="12" height="12" fill="rgb(255,80,80)" /><rect x="98" y="10" width="12" height="12" fill="rgb(255,80,80)" /><rect x="10" y="54" width="12" height="12" fill="rgb(0,195,255)" /><rect x="21" y="54" width="12" height="12" fill="rgb(0,195,255)" /><rect x="32" y="54" width="12" height="12" fill="rgb(0,195,255)" /><rect x="43" y="54" width="12" height="12" fill="rgb(0,195,255)" /><rect x="54" y="54" width="12" height="12" fill="rgb(0,195,255)" /><rect x="65" y="54" width="12" height="12" fill="rgb(0,195,255)" /><g transform="translate(0.000000,125.000000) scale(0.100000,-0.100000)" fill="#FF5252" stroke="none"><path d="M400 975 l0 -255 25 0 c23 0 25 4 25 40 l0 40 80 0 80 0 0 -40 c0 -29 4 -40 15 -40 11 0 15 11 15 40 l0 40 80 0 80 0 0 -40 c0 -29 4 -40 15 -40 11 0 15 11 15 40 l0 40 80 0 80 0 0 -45 0 -45 -65 0 c-51 0 -65 -3 -65 -15 0 -12 14 -15 65 -15 l65 0 0 -45 0 -45 -65 0 c-63 0 -65 -1 -65 -25 l0 -25 185 0 185 0 0 345 0 345 -415 0 -415 0 0 -255z m210 15 l0 -40 -80 0 -80 0 0 40 0 40 80 0 80 0 0 -40z m190 0 l0 -40 -80 0 -80 0 0 40 0 40 80 0 80 0 0 -40z m190 0 l0 -40 -80 0 -80 0 0 40 0 40 80 0 80 0 0 -40z m190 0 l0 -40 -80 0 -80 0 0 40 0 40 80 0 80 0 0 -40z m-570 -115 l0 -45 -80 0 -80 0 0 45 0 45 80 0 80 0 0 -45z m190 0 l0 -45 -80 0 -80 0 0 45 0 45 80 0 80 0 0 -45z m190 0 l0 -45 -80 0 -80 0 0 45 0 45 80 0 80 0 0 -45z m190 0 l0 -45 -80 0 -80 0 0 45 0 45 80 0 80 0 0 -45z m0 -120 l0 -45 -80 0 -80 0 0 45 0 45 80 0 80 0 0 -45z m0 -120 l0 -45 -80 0 -80 0 0 45 0 45 80 0 80 0 0 -45z"/></g><g transform="translate(0.000000,125.000000) scale(0.100000,-0.100000)" fill="#00C5FF" stroke="none"><path d="M30 375 l0 -345 415 0 415 0 0 345 0 345 -415 0 -415 0 0 -345z m210 105 l0 -40 -80 0 -80 0 0 40 0 40 80 0 80 0 0 -40z m190 0 l0 -40 -80 0 -80 0 0 40 0 40 80 0 80 0 0 -40z m190 0 l0 -40 -80 0 -80 0 0 40 0 40 80 0 80 0 0 -40z m190 0 l0 -40 -80 0 -80 0 0 40 0 40 80 0 80 0 0 -40z m-570 -115 l0 -45 -80 0 -80 0 0 45 0 45 80 0 80 0 0 -45z m190 0 l0 -45 -80 0 -80 0 0 45 0 45 80 0 80 0 0 -45z m190 0 l0 -45 -80 0 -80 0 0 45 0 45 80 0 80 0 0 -45z m190 0 l0 -45 -80 0 -80 0 0 45 0 45 80 0 80 0 0 -45z m-570 -120 l0 -45 -80 0 -80 0 0 45 0 45 80 0 80 0 0 -45z m190 0 l0 -45 -80 0 -80 0 0 45 0 45 80 0 80 0 0 -45z m190 0 l0 -45 -80 0 -80 0 0 45 0 45 80 0 80 0 0 -45z m190 0 l0 -45 -80 0 -80 0 0 45 0 45 80 0 80 0 0 -45z m-570 -120 l0 -45 -80 0 -80 0 0 45 0 45 80 0 80 0 0 -45z m190 0 l0 -45 -80 0 -80 0 0 45 0 45 80 0 80 0 0 -45z m190 0 l0 -45 -80 0 -80 0 0 45 0 45 80 0 80 0 0 -45z m190 0 l0 -45 -80 0 -80 0 0 45 0 45 80 0 80 0 0 -45z"/></g></svg>